<?xml version="1.0" encoding="UTF-8"?>
<svg viewBox="0 0 128 128" xmlns="http://www.w3.org/2000/svg" xmlns:xlink="http://www.w3.org/1999/xlink">
 <defs>
  <filter id="f">
   <feGaussianBlur stdDeviation="1.1"/>
  </filter>
  <filter id="e">
   <feGaussianBlur stdDeviation=".44891"/>
  </filter>
  <linearGradient id="a">
   <stop stop-color="#fff" offset="0"/>
   <stop stop-color="#fff" stop-opacity="0" offset="1"/>
  </linearGradient>
  <linearGradient id="d" x1="8" x2="86.244" y1="73.737" y2="2.4637" gradientUnits="userSpaceOnUse">
   <stop stop-color="#0a0" offset="0"/>
   <stop stop-color="#0f0" offset=".29524"/>
   <stop stop-color="#d5ffd5" offset="1"/>
  </linearGradient>
  <linearGradient id="c" x2="0" y1="4.5156" y2="79.832" gradientUnits="userSpaceOnUse" xlink:href="#a"/>
  <linearGradient id="b" x1="47.125" x2="60.753" y1="4.5156" y2="59.766" gradientUnits="userSpaceOnUse" xlink:href="#a"/>
 </defs>
 <g transform="matrix(1.8812 0 0 1.8812 -10.225 -25.307)">
  <path d="m20 42.362 10 10 30-30 10 10-40 40-20-20z" filter="url(#f)" opacity=".65158"/>
  <path d="m20 42.362 10 10 30-30 10 10-40 40-20-20z" fill="url(#d)"/>
  <path d="m60 23.5-27.344 27.344c0.66374-0.12971 1.3313-0.25542 2-0.375 3.3646-0.60167 7.5261-1.2467 10.906-1.6875 2.6453-0.34494 5.1032-0.59175 7.6562-0.75l15.656-15.656-8.875-8.875zm-40 20-8.875 8.875 3.1562 3.1562c4.5964-1.352 9.2181-2.7815 13.969-3.7812l-8.25-8.25z" fill="url(#c)" filter="url(#e)" stroke="url(#b)" stroke-width=".26578"/>
 </g>
</svg>
