<?xml version="1.0" encoding="UTF-8"?>
<svg width="800" height="800" version="1.1" viewBox="0 0 800.00001 800.00001" xmlns="http://www.w3.org/2000/svg">
 <path d="m329.38 56.514c-71.135-0.5321-142.27 35.518-213.4 168.03-24.176 31.104-34.182 23.518-69.588 13.707l-46.391 46.391 140.75 140.75 43.229-43.227c24.598-97.515 59.183-60.32 104.91-12.125l102.27-102.27c-128.16-103.15 66.605-155.55 126.52-165.53-62.766-16.302-125.53-45.253-188.3-45.723zm375.7 30.854c-17.424-0.3185-34.63 5.1751-49.025 18.293l-183.02 180.05 34.756 34.758c22.839-21.831 160.2-160.38 160.2-160.38l16.775 16.777-160.3 160.3 25.951 25.951c17.321-16.174 162.67-162.79 162.67-162.79l16.775 16.775-162.73 162.73 33.377 33.357 181.54-181.53c50.277-67.785-14.751-143.16-76.98-144.3zm-291.69 207.29l-100.65 100.65 325.05 332.51c73.141 63.135 173.24-40.597 104.37-104.37l-328.78-328.78zm-70.08 206.51l-155.82 146.12-32.057 64.861 22.365 17.895 74.182-49.578 135.31-135.31-43.986-43.986z" fill="#404040" fill-rule="evenodd"/>
</svg>
